<?xml version="1.0" encoding="utf-8"?>
<!-- Generator: Adobe Illustrator 22.1.0, SVG Export Plug-In . SVG Version: 6.00 Build 0)  -->
<svg version="1.1" id="Capa_1" xmlns="http://www.w3.org/2000/svg" xmlns:xlink="http://www.w3.org/1999/xlink" x="0px" y="0px"
	 viewBox="0 0 200 200" style="enable-background:new 0 0 200 200;" xml:space="preserve">
<style type="text/css">
	.st0{fill:#FFFFFF;}
	.st1{fill:#008489;}
</style>
<rect class="st0" width="200" height="200"/>
<g>
	<g>
		<path class="st1" d="M99.5,105.6c0.2,0,0.3,0,0.5,0c0.1,0,0.1,0,0.2,0c0.1,0,0.2,0,0.3,0c8.8-0.2,15.9-3.2,21.2-9.2
			c11.6-13,9.6-35.3,9.4-37.5c-0.8-16-8.3-23.6-14.6-27.2c-4.7-2.7-10.1-4.1-16.1-4.2h-0.2c0,0-0.1,0-0.1,0h-0.2
			c-3.3,0-9.9,0.5-16.1,4.1c-6.3,3.6-14,11.2-14.7,27.3c-0.2,2.1-2.1,24.4,9.4,37.5C83.6,102.4,90.7,105.5,99.5,105.6z M76.9,59.8
			c0-0.1,0-0.2,0-0.2C78,38,93.2,35.7,99.8,35.7h0.1c0.1,0,0.2,0,0.2,0c8.1,0.2,21.9,3.5,22.8,23.8c0,0.1,0,0.2,0,0.2
			c0,0.2,2.1,20.6-7.4,31.3c-3.8,4.3-8.8,6.4-15.4,6.4c-0.1,0-0.1,0-0.2,0l0,0c-0.1,0-0.1,0-0.2,0c-6.6-0.1-11.7-2.2-15.4-6.4
			C74.9,80.4,76.9,59.9,76.9,59.8z"/>
		<path class="st1" d="M161.6,142.6C161.6,142.6,161.6,142.6,161.6,142.6c0-0.3,0-0.6,0-0.8c-0.2-5.9-0.6-19.8-13.6-24.3
			c-0.1,0-0.2-0.1-0.3-0.1c-13.5-3.4-24.8-11.2-24.9-11.3c-1.8-1.3-4.3-0.8-5.6,1c-1.3,1.8-0.8,4.3,1,5.6
			c0.5,0.4,12.4,8.7,27.4,12.5c7,2.5,7.8,10,8,16.8c0,0.3,0,0.5,0,0.8c0,2.7-0.1,6.9-0.6,9.3c-4.9,2.8-23.9,12.3-52.9,12.3
			c-28.9,0-48-9.6-52.9-12.3c-0.5-2.4-0.7-6.6-0.6-9.3c0-0.2,0-0.5,0-0.8c0.2-6.8,1-14.3,8-16.8c14.9-3.8,26.9-12.2,27.4-12.5
			c1.8-1.3,2.3-3.8,1-5.6c-1.3-1.8-3.8-2.3-5.6-1c-0.1,0.1-11.3,7.9-24.9,11.3c-0.1,0-0.2,0.1-0.3,0.1c-13,4.5-13.4,18.4-13.6,24.3
			c0,0.3,0,0.5,0,0.8c0,0,0,0.1,0,0.1c0,1.6-0.1,9.6,1.5,13.6c0.3,0.8,0.8,1.4,1.6,1.9c0.9,0.6,22.5,14.3,58.6,14.3
			s57.7-13.8,58.6-14.3c0.7-0.4,1.3-1.1,1.6-1.9C161.7,152.2,161.6,144.2,161.6,142.6z"/>
	</g>
</g>
</svg>
